<svg xmlns="http://www.w3.org/2000/svg" xmlns:xlink="http://www.w3.org/1999/xlink" zoomAndPan="magnify" preserveAspectRatio="xMidYMid meet" version="1.0" viewBox="24.17 21.56 321.68 316.41"><defs><g/><clipPath id="66dec76fd1"><path d="M 24.167969 21.558594 L 345.847656 21.558594 L 345.847656 337.964844 L 24.167969 337.964844 Z M 24.167969 21.558594 " clip-rule="nonzero"/></clipPath><clipPath id="c14604b9d0"><path d="M 41.417969 21.558594 L 327.890625 21.558594 C 332.46875 21.558594 336.855469 23.375 340.089844 26.609375 C 343.324219 29.84375 345.140625 34.230469 345.140625 38.808594 L 345.140625 320.25 C 345.140625 324.824219 343.324219 329.210938 340.089844 332.449219 C 336.855469 335.683594 332.46875 337.5 327.890625 337.5 L 41.417969 337.5 C 36.84375 337.5 32.457031 335.683594 29.222656 332.449219 C 25.984375 329.210938 24.167969 324.824219 24.167969 320.25 L 24.167969 38.808594 C 24.167969 34.230469 25.984375 29.84375 29.222656 26.609375 C 32.457031 23.375 36.84375 21.558594 41.417969 21.558594 " clip-rule="nonzero"/></clipPath></defs><g clip-path="url(#66dec76fd1)"><g clip-path="url(#c14604b9d0)"><path fill="#d6e4f0" d="M 24.167969 21.558594 L 345.847656 21.558594 L 345.847656 337.964844 L 24.167969 337.964844 Z M 24.167969 21.558594 " fill-opacity="1" fill-rule="nonzero"/></g></g><g fill="#163172" fill-opacity="1"><g transform="translate(52.467848, 255.205893)"><g><path d="M 74.9375 -186.234375 C 79.050781 -183.128906 92.132812 -181.578125 114.1875 -181.578125 L 114.046875 -179.25 L 97.71875 -179.25 L 97.578125 -176.90625 C 117.066406 -176.90625 129.238281 -172.238281 134.09375 -162.90625 L 133.8125 -158.25 L 122.140625 -158.25 L 122.015625 -155.90625 L 138.203125 -153.578125 L 138.0625 -151.25 L 124.0625 -151.25 L 123.9375 -148.90625 C 128.601562 -148.90625 130.84375 -147.351562 130.65625 -144.25 C 102.9375 -144.25 78.1875 -134.132812 56.40625 -113.90625 L 56.265625 -111.578125 C 86.367188 -103.523438 110.207031 -85.640625 127.78125 -57.921875 L 127.640625 -55.578125 C 121.960938 -35.453125 106.085938 -16.789062 80.015625 0.40625 L 65.734375 2.75 L 65.609375 5.078125 L 70.265625 5.078125 C 70.085938 9.285156 55.816406 13.953125 27.453125 19.078125 L 27.71875 14.40625 L 39.390625 14.40625 L 39.65625 12.078125 C 29.6875 12.078125 20.675781 6.632812 12.625 -4.25 C 5.675781 -7.820312 2.203125 -14.640625 2.203125 -24.703125 C 2.203125 -25.617188 2.242188 -26.582031 2.328125 -27.59375 L 9.609375 -32.25 L 16.328125 -27.59375 L 21 -27.59375 C 64.914062 -34.445312 87.5625 -48.441406 88.9375 -69.578125 C 70.539062 -78.910156 58.367188 -83.578125 52.421875 -83.578125 L 52.296875 -81.25 L 29.375 -90.578125 L 31.5625 -88.25 L 31.421875 -83.578125 C 12.023438 -97.859375 2.554688 -108.75 3.015625 -116.25 L 21.265625 -148.90625 L 33.484375 -158.25 L 33.21875 -153.578125 Z M 43.09375 -123.25 L 42.953125 -120.90625 L 84.125 -146.578125 L 103.078125 -151.25 L 103.34375 -155.90625 L 98.671875 -155.90625 C 74.066406 -146.757812 55.539062 -135.875 43.09375 -123.25 Z M 56 -27.59375 L 58.328125 -27.59375 L 63.265625 -32.25 L 60.9375 -32.25 Z M 98 -27.59375 L 87.96875 -15.921875 L 90.3125 -15.921875 L 100.328125 -27.59375 Z M 68.765625 -8.921875 L 68.765625 -6.59375 L 71.09375 -6.59375 L 80.84375 -13.59375 Z M 42.265625 7.40625 L 42.140625 9.75 L 51.46875 9.75 L 63.265625 7.40625 L 63.265625 5.078125 L 60.9375 5.078125 Z M 42.265625 7.40625 "/></g></g></g><g fill="#163172" fill-opacity="1"><g transform="translate(187.779597, 255.205893)"><g><path d="M 112.953125 -186.921875 L 112.953125 -175.265625 L 119.953125 -175.265625 L 119.953125 -182.265625 L 129.28125 -182.265625 C 114.28125 -54.898438 98.546875 8.78125 82.078125 8.78125 C 82.078125 11.894531 74.296875 15.785156 58.734375 20.453125 L 56.40625 18.109375 L 54.078125 18.109375 L 42.40625 20.453125 L 40.078125 18.109375 L 40.078125 20.453125 C 24.523438 20.453125 16.75 13.453125 16.75 -0.546875 L 0.40625 -7.546875 L 0.40625 -14.546875 L 2.75 -12.21875 L 9.75 -12.21875 L 9.75 -14.546875 C 9.007812 -34.765625 7.453125 -44.875 5.078125 -44.875 L 9.75 -58.875 C 13.957031 -58.875 18.625 -61.207031 23.75 -65.875 L 33.078125 -65.875 L 35.40625 -51.875 L 40.078125 -51.875 L 40.078125 -56.546875 L 37.75 -58.875 L 37.75 -61.21875 L 40.078125 -63.546875 L 44.734375 -63.546875 C 44.734375 -58.878906 47.066406 -56.546875 51.734375 -56.546875 L 49.40625 -40.21875 L 49.40625 -33.21875 C 50.414062 -23.882812 52.75 -19.21875 56.40625 -19.21875 L 63.40625 -40.21875 L 65.734375 -37.875 L 70.40625 -37.875 C 77.363281 -37.875 86.101562 -82.113281 96.625 -170.59375 L 98.953125 -184.59375 L 101.28125 -186.921875 Z M 72.734375 -77.546875 L 75.078125 -77.546875 L 75.078125 -68.203125 L 72.734375 -68.203125 Z M 70.40625 -65.875 L 72.734375 -65.875 C 72.734375 -61.207031 74.289062 -58.875 77.40625 -58.875 C 77.40625 -55.769531 75.070312 -54.21875 70.40625 -54.21875 L 72.734375 -51.875 L 72.734375 -49.546875 L 68.078125 -44.875 L 70.40625 -44.875 L 72.734375 -47.21875 L 72.734375 -42.546875 L 65.734375 -40.21875 L 65.734375 -42.546875 Z M 9.75 -56.546875 L 9.75 -44.875 L 12.078125 -44.875 L 12.078125 -56.546875 Z M 9.75 -56.546875 "/></g></g></g></svg>